# xmcd
#
# Track frame offsets:
#	150
#	14200
#	36295
#	49516
#	69426
#	80437
#	91796
#	107005
#	119664
#	134753
#	155091
#	163548
#	175492
#	189557
#	203688
#	221367
#	236111
#	237153
#	255453
#
# Disc length: 3595 seconds
#
# Revision: 0
# Processed by: cddbd v1.5.2PL0 Copyright (c) Steve Scherf et al.
# Submitted via: EZCDAudioConverter 1.3.4.1
#
DISCID=0e0e0913
DTITLE=Various Artist - SOUL FIRE BOX SET 1/2
DYEAR=1900
DGENRE=
TTITLE0=LEE FIELDS and THE EXPLORERS - I'M THE MAN
TTITLE1=EL MICHELS AFFAIR - EASY ACCESS
TTITLE2=BRONX RIVER PARKWAY - CHUM'S PIMPAGE
TTITLE3=FABULOUS THREE - VIBES
TTITLE4=BAMA and THE FAMILY - GET UP IN YOUR HOT PANTS
TTITLE5=DETROIT SEX MACHINES - RAP IT TOGETHER
TTITLE6=LEE FIELDS and THE EXPLORERS - HONEY DOVE
TTITLE7=J.D. and THE EVIL'S DYNAMITE BAND - SUNDAY KIND OF LOVE
TTITLE8=FABULOUS THREE - RECORDING #82
TTITLE9=JOJO KUO and HIS CHALLENGERS - BRICK BY BRICK
TTITLE10=FABULOUS THREE - DJANGO'S SOUL
TTITLE11=BAMA and THE FAMILY - GOOGIE
TTITLE12=J.D. and THE EVIL'S DYNAMITE BAND - EVERGLADES (PART 1)
TTITLE13=EL MICHELS AFFAIR - SPREAD YOUR SOUL
TTITLE14=J.D. and THE EVIL'S DYNAMITE BAND - BEER (SO NICE), RIGHT ON
TTITLE15=SOUL DIGGERS - SOUL DIG
TTITLE16=FABULOUS THREE - NIGHTBIRD (BONUS BEAT)
TTITLE17=THE THIRD EYE - CHILDREN'S SONG
TTITLE18=FABULOUS THREE - ANSWER ME SOFTLY
EXTD=
EXTT0=
EXTT1=
EXTT2=
EXTT3=
EXTT4=
EXTT5=
EXTT6=
EXTT7=
EXTT8=
EXTT9=
EXTT10=
EXTT11=
EXTT12=
EXTT13=
EXTT14=
EXTT15=
EXTT16=
EXTT17=
EXTT18=
PLAYORDER=
